<?xml version="1.0" encoding="UTF-8" standalone="no"?>
<!-- Created with Inkscape (http://www.inkscape.org/) -->

<svg
   width="64mm"
   height="64.000008mm"
   viewBox="0 0 64 64.000008"
   version="1.1"
   id="svg5"
   xmlns="http://www.w3.org/2000/svg"
   xmlns:svg="http://www.w3.org/2000/svg">
  <defs
     id="defs2" />
  <g
     id="layer1">
    <circle
       style="fill:#aa4400;stroke-width:0.338665"
       id="path284"
       cx="32"
       cy="32"
       r="32" />
    <path
       id="path496"
       style="fill:#ff6600;stroke-width:0.246309"
       d="M 29.8492,3.0738693 C 24.856003,3.49108 19.855947,5.0554343 15.204325,8.3504478 12.057638,10.583987 9.0286185,13.617061 6.6386704,17.915454 c -1.764463,3.14597 -3.143306,7.127223 -3.5306148,11.550767 -0.3206533,3.643803 0.084106,7.436284 1.0578575,10.689762 1.2402475,4.255485 3.2589637,7.654073 5.4730942,10.342618 3.7095777,4.436638 8.0088117,7.125335 12.3740127,8.72906 5.568985,2.0224 11.336594,2.293722 16.965746,0.917752 4.937161,-1.231999 9.832108,-3.742485 14.144435,-8.240509 2.57226,-2.76549 4.961019,-6.322796 6.476528,-10.98173 1.21748,-3.746848 1.729887,-8.280656 1.18039,-12.526662 C 60.003934,22.222896 57.434712,17.285732 54.569563,13.753897 50.036314,8.2251023 44.634069,5.3323448 39.227856,3.9071578 36.124995,3.1038148 32.982458,2.8595914 29.8492,3.0738693 Z" />
    <path
       style="fill:#d45500;stroke-width:0.264583"
       d="m 30.202539,16.086527 -0.397597,0.646602"
       id="path984" />
    <text
       xml:space="preserve"
       style="font-size:62.922px;fill:#803300;stroke-width:5.24349"
       x="10.68416"
       y="58.404205"
       id="text1045"
       transform="scale(1.123158,0.89034667)"><tspan
         id="tspan1043"
         style="fill:#803300;stroke-width:5.24349"
         x="10.68416"
         y="58.404205">Y</tspan><tspan
         style="fill:#803300;stroke-width:5.24349"
         x="10.68416"
         y="137.0567"
         id="tspan1047" /></text>
    <rect
       style="fill:#803300;stroke-width:0.249678"
       id="rect1155"
       width="40"
       height="5"
       x="12"
       y="47" />
  </g>
</svg>
